<svg width="60" height="60" viewBox="0 0 60 60" fill="none" xmlns="http://www.w3.org/2000/svg">
<rect width="60" height="60" rx="20" fill="#E7EDFF"/>
<path d="M39.9608 24.1634V23.8077C39.9608 22.1727 38.6306 20.8425 36.9956 20.8425H19.9652C18.3302 20.8426 17 22.1727 17 23.8077V24.1634H39.9608Z" fill="#396AFF"/>
<path d="M30.5651 33.7017C30.5651 32.1636 31.0598 30.7017 31.9731 29.4968H17V33.6331C17 35.2681 18.3302 36.5983 19.9652 36.5983H31.1911C30.7813 35.7007 30.5651 34.7179 30.5651 33.7017ZM28.4804 32.803H25.9212V31.2796H28.4804V32.803ZM20.4154 31.2796H24.3978V32.803H20.4154V31.2796Z" fill="#396AFF"/>
<path d="M33.5547 27.9734C34.7165 27.1606 36.0967 26.7226 37.5443 26.7226C38.3822 26.7226 39.1973 26.8697 39.9608 27.1509V25.6869H17V27.9734H33.5547Z" fill="#396AFF"/>
<path d="M42.9998 33.7018C42.9998 30.6887 40.5572 28.2461 37.5441 28.2461C34.531 28.2461 32.0884 30.6887 32.0884 33.7018C32.0884 36.7149 34.531 39.1575 37.5441 39.1575C40.5572 39.1575 42.9998 36.7149 42.9998 33.7018ZM38.2795 36.6164V37.2364H37.5178V37.2364V37.2364H36.7561V36.6209C36.2956 36.465 35.9188 36.1906 35.5508 35.9215L36.4501 34.6919C36.9445 35.0534 37.1975 35.2272 37.5441 35.2272C37.7401 35.2272 37.8988 35.1339 37.9583 34.9838C38.0303 34.802 37.9286 34.6345 37.6859 34.5357C37.6859 34.5357 36.5971 34.1726 36.0937 33.6593C35.6714 33.2288 35.537 32.622 35.6715 32.0447C35.8069 31.4635 36.1993 31.0091 36.7561 30.7822V30.1671H38.2795V30.7567C38.6664 30.8641 38.9939 31.0229 39.1822 31.1251L38.4554 32.464C37.9735 32.2024 37.5301 32.1239 37.3576 32.1829C37.1902 32.2401 37.1647 32.3493 37.1551 32.3904C37.1416 32.4486 37.1343 32.538 37.2274 32.6418C37.3171 32.7417 38.2603 33.1248 38.2603 33.1248C39.2781 33.5391 39.7571 34.5795 39.3746 35.5449C39.1759 36.0467 38.7759 36.4267 38.2795 36.6164Z" fill="#396AFF"/>
</svg>
